<svg xmlns="http://www.w3.org/2000/svg" xmlns:xlink="http://www.w3.org/1999/xlink" style="display: none;">
  <defs>
    <!-- book.svg -->
    <symbol id="icon-book" viewBox="0 0 24 24">
      <path d="M4 8C4 5.17157 4 3.75736 4.87868 2.87868C5.75736 2 7.17157 2 10 2H14C16.8284 2 18.2426 2 19.1213 2.87868C20 3.75736 20 5.17157 20 8V16C20 18.8284 20 20.2426 19.1213 21.1213C18.2426 22 16.8284 22 14 22H10C7.17157 22 5.75736 22 4.87868 21.1213C4 20.2426 4 18.8284 4 16V8Z" stroke="currentColor" stroke-width="1.5"/>
      <path d="M19.8978 16H7.89778C6.96781 16 6.50282 16 6.12132 16.1022C5.08604 16.3796 4.2774 17.1883 4 18.2235" stroke="currentColor" stroke-width="1.5"/>
      <path d="M8 7H16" stroke="currentColor" stroke-width="1.5" stroke-linecap="round"/>
      <path d="M8 10.5H13" stroke="currentColor" stroke-width="1.5" stroke-linecap="round"/>
      <path d="M19.5 19H8" stroke="currentColor" stroke-width="1.5" stroke-linecap="round"/>
    </symbol>

    <!-- calculator.svg -->
    <symbol id="icon-calculator" viewBox="0 0 24 24">
      <path d="M14 7C14 6.44771 14.4477 6 15 6H16V5C16 4.44772 16.4477 4 17 4C17.5523 4 18 4.44772 18 5V6H19C19.5523 6 20 6.44771 20 7C20 7.55229 19.5523 8 19 8H18V9C18 9.55228 17.5523 10 17 10C16.4477 10 16 9.55228 16 9V8H15C14.4477 8 14 7.55229 14 7Z" fill="currentColor"/>
      <path d="M14 15C14 14.4477 14.4477 14 15 14H19C19.5523 14 20 14.4477 20 15C20 15.5523 19.5523 16 19 16H15C14.4477 16 14 15.5523 14 15Z" fill="currentColor"/>
      <path d="M15 18C14.4477 18 14 18.4477 14 19C14 19.5523 14.4477 20 15 20H19C19.5523 20 20 19.5523 20 19C20 18.4477 19.5523 18 19 18H15Z" fill="currentColor"/>
      <path d="M5 6C4.44772 6 4 6.44771 4 7C4 7.55229 4.44772 8 5 8H9C9.55228 8 10 7.55229 10 7C10 6.44771 9.55228 6 9 6H5Z" fill="currentColor"/>
      <path d="M5.92512 14.5109C5.5346 14.1204 4.90143 14.1204 4.51091 14.5109C4.12039 14.9014 4.12039 15.5346 4.51091 15.9251L5.5858 17L4.50337 18.0824C4.11284 18.4729 4.11284 19.1061 4.50337 19.4966C4.89389 19.8872 5.52705 19.8872 5.91758 19.4966L7.00002 18.4142L8.08944 19.5036C8.47996 19.8941 9.11313 19.8941 9.50365 19.5036C9.89418 19.1131 9.89418 18.4799 9.50365 18.0894L8.41423 17L9.50194 15.9123C9.89246 15.5218 9.89246 14.8886 9.50194 14.4981C9.11141 14.1075 8.47825 14.1075 8.08772 14.4981L7.00002 15.5858L5.92512 14.5109Z" fill="currentColor"/>
      <path fill-rule="evenodd" clip-rule="evenodd" d="M20 1C21.6569 1 23 2.34315 23 4V20C23 21.6569 21.6569 23 20 23H4C2.34315 23 1 21.6569 1 20V4C1 2.34315 2.34315 1 4 1H20ZM20 3C20.5523 3 21 3.44772 21 4V11H13V3H20ZM21 13V20C21 20.5523 20.5523 21 20 21H13V13H21ZM4 3H11V11H3V4C3 3.44772 3.44772 3 4 3ZM3 20V13H11V21H4C3.44772 21 3 20.5523 3 20Z" fill="currentColor"/>
    </symbol>

    <!-- convert.svg -->
    <symbol id="icon-convert" viewBox="0 0 24 24">
      <path d="M22 15C22 18.87 18.87 22 15 22L16.05 20.25" stroke="currentColor" stroke-width="1.5" stroke-linecap="round" stroke-linejoin="round"/>
      <path d="M2 9C2 5.13 5.13 2 9 2L7.95 3.75" stroke="currentColor" stroke-width="1.5" stroke-linecap="round" stroke-linejoin="round"/>
      <path d="M13.7 4.44995L17.6799 6.74994L21.6199 4.45996" stroke="currentColor" stroke-width="1.5" stroke-linecap="round" stroke-linejoin="round"/>
      <path d="M17.6799 10.82V6.73999" stroke="currentColor" stroke-width="1.5" stroke-linecap="round" stroke-linejoin="round"/>
      <path d="M16.74 2.21L14.34 3.53996C13.8 3.83996 13.35 4.59995 13.35 5.21995V7.75999C13.35 8.37999 13.79 9.13998 14.34 9.43998L16.74 10.77C17.25 11.06 18.09 11.06 18.61 10.77L21.01 9.43998C21.55 9.13998 22 8.37999 22 7.75999V5.21995C22 4.59995 21.56 3.83996 21.01 3.53996L18.61 2.21C18.1 1.93 17.26 1.93 16.74 2.21Z" stroke="currentColor" stroke-width="1.5" stroke-linecap="round" stroke-linejoin="round"/>
      <path d="M2.34998 15.45L6.31998 17.7499L10.27 15.46" stroke="currentColor" stroke-width="1.5" stroke-linecap="round" stroke-linejoin="round"/>
      <path d="M6.31995 21.82V17.74" stroke="currentColor" stroke-width="1.5" stroke-linecap="round" stroke-linejoin="round"/>
      <path d="M5.39 13.21L2.99001 14.54C2.45001 14.84 2 15.5999 2 16.2199V18.76C2 19.38 2.44001 20.14 2.99001 20.44L5.39 21.77C5.9 22.06 6.73999 22.06 7.25999 21.77L9.66 20.44C10.2 20.14 10.65 19.38 10.65 18.76V16.2199C10.65 15.5999 10.21 14.84 9.66 14.54L7.25999 13.21C6.73999 12.93 5.9 12.93 5.39 13.21Z" stroke="currentColor" stroke-width="1.5" stroke-linecap="round" stroke-linejoin="round"/>
    </symbol>

    <!-- home.svg -->
    <symbol id="icon-home" viewBox="0 0 16 16">
      <path d="M1 6V15H6V11C6 9.89543 6.89543 9 8 9C9.10457 9 10 9.89543 10 11V15H15V6L8 0L1 6Z" fill="currentColor"/>
    </symbol>

    <!-- lab.svg -->
    <symbol id="icon-lab" viewBox="0 0 72 72">
      <path d="M67.625,56.738C67.592,56.688,67.66,56.787,67.625,56.738L47.823,28.167V5.42c0-1.105-0.539-1.92-1.643-1.92H27.179
        c-1.104,0-1.356,0.816-1.356,1.92v22.097L4.904,56.764c-0.035,0.049-0.217,0.277-0.248,0.33c-1.688,2.926-2.078,5.621-0.785,7.86
        c1.306,2.261,3.915,3.546,7.347,3.546h49.451c3.429,0,6.118-1.287,7.424-3.551C69.389,62.704,69.313,59.666,67.625,56.738z
         M29.137,29.302c0.237-0.338,0.687-0.74,0.687-1.152V7.5h14v21.301c0,0.412-0.194,0.824,0.044,1.161l9.19,13.262
        c-3.056,1.232-6.822,2.05-14.531-2.557c-5.585-3.337-12.499-2.048-17.199-0.449L29.137,29.302z M64.55,62.949
        c-0.554,0.96-1.969,1.551-3.88,1.551H11.219c-1.915,0-3.33-0.589-3.883-1.547c-0.532-0.922-0.324-2.391,0.571-3.975l11.287-15.777
        c3.942-1.702,12.219-4.454,18.308-0.816c4.852,2.898,8.367,3.814,11.116,3.814c2.291,0,4.05-0.637,5.607-1.291l9.755,14.076
        C64.877,60.568,65.085,62.023,64.55,62.949z"/>
      <path d="M22.026,50.969c-3.017,0-5.471,2.453-5.471,5.471c0,3.017,2.454,5.471,5.471,5.471c3.016,0,5.471-2.454,5.471-5.471
        C27.497,53.422,25.043,50.969,22.026,50.969z M22.026,59.911c-1.914,0-3.471-1.558-3.471-3.472s1.557-3.471,3.471-3.471
        s3.471,1.557,3.471,3.471S23.94,59.911,22.026,59.911z"/>
      <path d="M50.775,52.469c-2.603,0-4.721,2.117-4.721,4.721c0,2.603,2.118,4.721,4.721,4.721c2.604,0,4.722-2.118,4.722-4.721
        C55.497,54.586,53.379,52.469,50.775,52.469z M50.775,59.911c-1.5,0-2.721-1.222-2.721-2.722s1.221-2.721,2.721-2.721
        s2.722,1.221,2.722,2.721S52.275,59.911,50.775,59.911z"/>
      <path d="M35.077,45.469c-2.217,0-4.021,1.803-4.021,4.021c0,2.217,1.803,4.021,4.021,4.021c2.217,0,4.021-1.805,4.021-4.021
        S37.294,45.469,35.077,45.469z M35.077,51.512c-1.114,0-2.021-0.908-2.021-2.021c0-1.114,0.907-2.021,2.021-2.021
        c1.114,0,2.021,0.906,2.021,2.021S36.191,51.512,35.077,51.512z"/>
      <path d="M40.824,22.42c0.553,0,1-0.447,1-1v-11c0-0.553-0.447-1-1-1s-1,0.447-1,1v11C39.824,21.973,40.271,22.42,40.824,22.42z"/>
      <path d="M40.824,27.42c0.553,0,1-0.447,1-1v-1c0-0.553-0.447-1-1-1s-1,0.447-1,1v1C39.824,26.973,40.271,27.42,40.824,27.42z"/>
    </symbol>

    <!-- rule.svg -->
    <symbol id="icon-rule" viewBox="0 0 511.999 511.999">
      <g>
        <g>
          <path d="M509.494,497.433L14.569,2.508C12.12,0.058,8.468-0.675,5.268,0.656C2.085,1.97,0.003,5.085,0.003,8.54v494.925
            c0,4.719,3.823,8.533,8.533,8.533h494.925c3.447,0,6.562-2.074,7.885-5.265S511.935,499.873,509.494,497.433z M17.069,494.932
            V29.14l60.466,60.466l-6.767,6.767c-3.336,3.336-3.336,8.729,0,12.066c1.664,1.664,3.848,2.5,6.033,2.5s4.369-0.836,6.033-2.5
            l6.767-6.767l22.067,22.067l-15.3,15.3c-3.336,3.336-3.336,8.729,0,12.066c1.664,1.664,3.849,2.5,6.033,2.5
            c2.184,0,4.369-0.836,6.033-2.5l15.3-15.3l22.067,22.067l-6.767,6.767c-3.336,3.336-3.336,8.729,0,12.066
            c1.664,1.664,3.848,2.5,6.033,2.5s4.369-0.836,6.033-2.5l6.767-6.767l22.067,22.067l-15.3,15.3c-3.336,3.336-3.336,8.729,0,12.066
            c1.664,1.664,3.849,2.5,6.033,2.5c2.185,0,4.369-0.836,6.033-2.5l15.3-15.3l22.067,22.067l-6.767,6.767
            c-3.336,3.336-3.336,8.729,0,12.066c1.664,1.664,3.848,2.5,6.033,2.5s4.369-0.836,6.033-2.5l6.767-6.767l22.067,22.067l-15.3,15.3
            c-3.336,3.336-3.336,8.729,0,12.066c1.664,1.664,3.849,2.5,6.033,2.5c2.185,0,4.369-0.836,6.033-2.5l15.3-15.3l22.067,22.067
            l-6.767,6.767c-3.336,3.336-3.336,8.729,0,12.066c1.664,1.664,3.848,2.5,6.033,2.5s4.369-0.836,6.033-2.5l6.767-6.767
            l22.067,22.067l-15.3,15.3c-3.336,3.336-3.336,8.729,0,12.066c1.664,1.664,3.848,2.5,6.033,2.5s4.369-0.836,6.033-2.5l15.3-15.3
            l22.067,22.067l-6.767,6.767c-3.336,3.336-3.336,8.729,0,12.066c1.664,1.664,3.848,2.5,6.033,2.5s4.369-0.836,6.033-2.5
            l6.767-6.767l22.067,22.067l-15.3,15.3c-3.336,3.336-3.336,8.729,0,12.066c1.664,1.664,3.848,2.5,6.033,2.5s4.369-0.836,6.033-2.5
            l15.3-15.3l22.067,22.067l-6.767,6.767c-3.336,3.336-3.336,8.729,0,12.066c1.664,1.664,3.848,2.5,6.033,2.5s4.369-0.836,6.033-2.5
            l6.767-6.767l51.933,51.933H17.069z"/>
        </g>
      </g>
      <g>
        <g>
          <path d="M347.901,429.705L82.835,164.638c-2.44-2.449-6.101-3.191-9.301-1.852c-3.183,1.314-5.265,4.429-5.265,7.885V435.2
            c0,4.71,3.806,8.525,8.516,8.533l265.066,0.538c0,0,0.009,0,0.017,0c3.447,0,6.562-2.074,7.876-5.256
            C351.067,435.823,350.342,432.145,347.901,429.705z M85.335,426.684V191.27l235.891,235.891L85.335,426.684z"/>
        </g>
      </g>
    </symbol>

    <!-- time.svg -->
    <symbol id="icon-time" viewBox="0 0 24 24">
      <path d="M23,11a1,1,0,0,0-1,1,10.034,10.034,0,1,1-2.9-7.021A.862.862,0,0,1,19,5H16a1,1,0,0,0,0,2h3a3,3,0,0,0,3-3V1a1,1,0,0,0-2,0V3.065A11.994,11.994,0,1,0,24,12,1,1,0,0,0,23,11Z
      M12,6a1,1,0,0,0-1,1v5a1,1,0,0,0,.293.707l3,3a1,1,0,0,0,1.414-1.414L13,11.586V7A1,1,0,0,0,12,6Z"/>
    </symbol>

    <!-- tools.svg -->
    <symbol id="icon-tools" viewBox="0 0 16 16">
      <path fill="currentColor" d="M10.3 8.2l-0.9 0.9 0.9 0.9-1.2 1.2 4.3 4.3c0.6 0.6 1.5 0.6 2.1 0s0.6-1.5 0-2.1l-5.2-5.2zM14.2 15c-0.4 0-0.8-0.3-0.8-0.8 0-0.4 0.3-0.8 0.8-0.8s0.8 0.3 0.8 0.8c0 0.5-0.3 0.8-0.8 0.8z"></path>
      <path fill="currentColor" d="M3.6 8l0.9-0.6 1.5-1.7 0.9 0.9 0.9-0.9-0.1-0.1c0.2-0.5 0.3-1 0.3-1.6 0-2.2-1.8-4-4-4-0.6 0-1.1 0.1-1.6 0.3l2.9 2.9-2.1 2.1-2.9-2.9c-0.2 0.5-0.3 1-0.3 1.6 0 2.1 1.6 3.7 3.6 4z"></path>
      <path fill="currentColor" d="M8 10.8l0.9-0.8-0.9-0.9 5.7-5.7 1.2-0.4 1.1-2.2-0.7-0.7-2.3 1-0.5 1.2-5.6 5.7-0.9-0.9-0.8 0.9c0 0 0.8 0.6-0.1 1.5-0.5 0.5-1.3-0.1-2.8 1.4-0.5 0.5-2.1 2.1-2.1 2.1s-0.6 1 0.6 2.2 2.2 0.6 2.2 0.6 1.6-1.6 2.1-2.1c1.4-1.4 0.9-2.3 1.3-2.7 0.9-0.9 1.6-0.2 1.6-0.2zM4.9 10.4l0.7 0.7-3.8 3.8-0.7-0.7z"></path>
    </symbol>

    <!-- weight.svg -->
    <symbol id="icon-weight" viewBox="0 0 512 512">
      <path fill="currentColor" d="M455.998,0.004H56.002C25.063,0.011,0.008,25.067,0,56.006v399.989c0.008,30.938,25.063,55.994,56.002,56.002
        h399.997c30.938-0.008,55.994-25.063,56.002-56.002V56.006C511.993,25.067,486.937,0.011,455.998,0.004z M479.999,455.994
        c-0.007,6.68-2.664,12.579-7.032,16.969c-4.39,4.367-10.289,7.024-16.969,7.032H56.002c-6.68-0.008-12.579-2.664-16.969-7.032
        c-4.367-4.39-7.023-10.289-7.031-16.969V56.006c0.008-6.68,2.664-12.579,7.031-16.977c4.39-4.359,10.289-7.016,16.969-7.023
        h399.997c6.68,0.007,12.579,2.664,16.969,7.023c4.367,4.398,7.024,10.297,7.032,16.977V455.994z"/>
      <path fill="currentColor" d="M128.012,119.101l26.391,76.783H270.86l16.352-67.947l9.938,2.031l9.93,2.015l-10.696,63.9h61.212
        l26.392-76.783C346.612,96.577,302.83,83.6,256.008,83.6C209.178,83.6,165.388,96.577,128.012,119.101z"/>
    </symbol>
    
    <symbol id="icon-note" viewBox="0 0 512 512">
        
	<path class="st0" d="M472.547,340.554c-7.141-24.781-14.266-49.578-21.391-74.359c-2.328-8.063-4.656-16.125-6.969-24.203
		l-19.344,19.344c6.266,24.672,12.531,49.344,18.797,74.031c3.094,12.156-5.016,22.969-18.344,18.813
		c-21.828-9.063-45.891-15.438-69.531-16.672c-26.875-1.375-54.406,4.125-79.172,14.453c-2.797,1.156-21.484,14.609-22.234,5.063
		c-0.406-22.313-0.828-44.625-1.234-66.938c-0.859-46.094-1.703-92.172-2.563-138.266c-0.047-2.641,6.328-3.969,7.641-4.469
		c10.438-3.953,21.359-6.672,32.359-8.453c26.797-4.359,53.172-2.125,79.375,4.516c8.344,2.125,17.094,4.719,23.25,10.094
		l12.438-12.422c-4.047-3.063-8.563-5.656-13.391-7.797c-22.234-9.953-50.453-13.891-74.578-14.453
		c-25.766-0.609-52.094,3.422-76.469,11.797c-4.75,1.625-12.516-2.688-17.375-4c-5.719-1.547-11.5-2.844-17.328-3.938
		c-12.844-2.375-25.875-3.672-38.938-3.875c-24.953-0.391-50.453,4.391-74.297,11.563c-5.25,1.969-1.5,0.578-0.328,0.141
		c-14.875,5.625-31.188,14.813-35.875,31.125c-1.172,4.078-2.359,8.156-3.531,12.234c-5.938,20.641-11.875,41.266-17.813,61.906
		c-8.125,28.219-16.234,56.422-24.359,84.625c-4.719,16.422-14.078,37.516-10.578,54.781c4.281,21.375,25.188,31.219,45.391,27.109
		c7.109-1.469,13.625-4.75,20.406-7.172c11.328-4.063,22.922-7.484,34.719-9.938c28.406-5.891,57.25-2.766,85.172,4.438
		c6.234,1.609,29.594,5.641,30.266,12.609c0.641,6.5,8.109,4.734,12.813,4.734c4.672,0,9.344,0,14.016,0
		c4.281,0,11.453,1.484,15.516-0.297c4.078-1.766,0.938-6.234,4.781-7.906c5.234-2.266,10.656-4.141,16.094-5.828
		c12.719-3.969,25.781-6.922,38.969-8.844c28.203-4.109,54.859-1.141,81.938,7.406c15.859,5,31.234,14.219,48.438,11.141
		c23.453-4.156,33.047-28.125,26.891-49.5C475.063,348.913,473.75,344.741,472.547,340.554z M226.5,206.616
		c-0.938,49.547-1.844,99.078-2.766,148.625c-0.063,3.313-0.969,5.375-4.656,5.281c-20.063-11.922-43.875-18.813-66.906-21.719
		c-27.063-3.422-53.547,0.266-79.484,8.313c-8.047,2.484-17.047,7.953-25.578,7.953c-9.766,0-15.438-8.688-13.156-17.766
		c5.969-23.453,11.906-46.922,17.875-70.375c7-27.578,13.984-55.172,21-82.75c1.75-6.859,3.484-13.734,5.234-20.609
		c4.266-16.813,28.047-20,42.25-22.953c26.516-5.484,53.391-5.453,79.813,0.766c4.563,1.078,27.5,4.609,27.375,11.156
		C227.156,170.569,226.828,188.601,226.5,206.616z"/>
	<path class="st0" d="M304.609,311.819l69.547-14.75L512,159.257l-54.813-54.813L319.375,242.257L304.609,311.819z M485.563,159.257
		L367.375,277.429l-12.203-12.203l118.188-118.172L485.563,159.257z M457.188,130.882l12.203,12.203L351.203,261.257L339,249.054
		L457.188,130.882z M336.234,254.21l25.984,26l-24.203,5.328l-7.125-7.109L336.234,254.21z"/>
        
    </symbol>
     
  </defs>
</svg>